#!OML:ASF I:\golf\golf\golf 2\Subject 1\2002-09-07\Subject1.ASF
:FULLY-SPECIFIED
:DEGREES
194
root 1.55402 17.7858 -8.95312 11.7315 2.6263 -4.4962
lowerback 1.51817 1.51131 -4.23013
upperback 4.2645 1.95801 3.34299
thorax 3.30306 0.783406 5.87675
lowerneck -15.7391 -0.623691 -0.1851
upperneck 40.2499 2.19647 -6.98385
head 17.6152 -0.0718556 -2.75525
rclavicle 3.47873e-015 9.93923e-015
rhumerus -22.6469 6.16743 -81.9756
rradius 32.3482
rwrist -11.267
rhand -19.3757 11.459
rfingers 7.12502
rthumb 6.94251 -18.4071
lclavicle 3.47873e-015 9.93923e-015
lhumerus -25.8792 3.04799 81.4097
lradius 32.6151
lwrist 5.32007
lhand -8.63794 30.7916
lfingers 7.12502
lthumb 17.2949 60.0421
rfemur -39.3554 -2.19985 20.9977
rtibia 43.2165
rfoot -9.61241 -7.81313
rtoes -1.11702
lfemur -17.4354 0.977488 -17.5712
ltibia 32.3751
lfoot -22.4005 -2.30716
ltoes -0.380532
195
root 1.55174 17.7896 -8.92368 11.9174 2.91384 -4.46729
lowerback 1.68533 1.47311 -4.18804
upperback 4.40616 1.89982 3.40039
thorax 3.36399 0.749476 5.91142
lowerneck -16.0305 -0.672153 -0.437304
upperneck 40.2144 2.18546 -6.89779
head 17.6696 -0.106229 -2.67375
rclavicle -2.08724e-014 -4.96962e-015
rhumerus -22.2087 6.50506 -81.8648
rradius 32.3795
rwrist -11.3965
rhand -19.4156 11.3412
rfingers 7.12502
rthumb 6.90398 -18.5262
lclavicle -2.08724e-014 -4.96962e-015
lhumerus -25.7393 3.27607 81.4395
lradius 32.7512
lwrist 5.34708
lhand -8.57735 31.2221
lfingers 7.12502
lthumb 17.3532 60.4674
rfemur -39.7713 -2.29629 21.1495
rtibia 42.1911
rfoot -9.33019 -7.48874
rtoes -0.440346
lfemur -17.4864 0.731717 -17.5651
ltibia 32.2034
lfoot -22.4118 -2.09826
ltoes -1.41007
196
root 1.54818 17.7919 -8.89552 12.0907 3.22893 -4.49354
lowerback 1.85187 1.4796 -4.03875
upperback 4.50341 1.90251 3.40312
thorax 3.37474 0.75326 5.82615
lowerneck -16.102 -0.76104 -0.489212
upperneck 40.1165 2.03694 -6.8289
head 17.6207 -0.163308 -2.65508
rclavicle -2.5842e-015 3.97569e-015
rhumerus -21.9474 6.75304 -81.8427
rradius 32.4919
rwrist -11.519
rhand -19.577 11.0609
rfingers 7.12502
rthumb 6.74815 -18.8116
lclavicle -2.5842e-015 3.97569e-015
lhumerus -25.5396 3.50355 81.3514
lradius 32.6195
lwrist 5.12388
lhand -8.48735 31.2088
lfingers 7.12502
lthumb 17.4399 60.4464
rfemur -40.1293 -2.29229 21.3386
rtibia 41.1453
rfoot -9.09393 -7.29384
rtoes -0.792094
lfemur -17.5408 0.605538 -17.4828
ltibia 32.022
lfoot -22.3666 -2.12777
ltoes -1.69675
197
root 1.54059 17.7964 -8.86665 12.3052 3.58853 -4.45338
lowerback 1.98033 1.45365 -4.01572
upperback 4.59224 1.8633 3.42959
thorax 3.40015 0.73124 5.83917
lowerneck -16.1296 -0.825531 -0.513986
upperneck 39.9393 1.9505 -6.85891
head 17.5222 -0.20372 -2.67055
rclavicle -4.07509e-015 1.11319e-014
rhumerus -21.7027 7.01026 -81.7775
rradius 32.6573
rwrist -11.6515
rhand -19.5952 11.0704
rfingers 7.12502
rthumb 6.73063 -18.8026
lclavicle -4.07509e-015 1.11319e-014
lhumerus -25.4608 3.52631 81.3182
lradius 32.6629
lwrist 5.19195
lhand -8.50556 31.0974
lfingers 7.12502
lthumb 17.4223 60.3366
rfemur -40.494 -2.2677 21.4527
rtibia 40.0891
rfoot -9.11382 -7.06913
rtoes 0.148488
lfemur -17.6379 0.501294 -17.4283
ltibia 31.8161
lfoot -22.2765 -2.49388
ltoes -0.621686
198
root 1.53061 17.8007 -8.83693 12.4594 3.95978 -4.39969
lowerback 2.35495 1.45155 -3.953
upperback 4.63341 1.8505 3.40502
thorax 3.23561 0.731539 5.76676
lowerneck -16.2799 -0.908067 -0.465924
upperneck 39.8854 1.81199 -6.86252
head 17.5222 -0.252921 -2.70601
rclavicle 3.67752e-015 -5.1684e-015
rhumerus -21.5049 7.02706 -81.7728
rradius 32.7831
rwrist -11.7183
rhand -19.5479 11.3162
rfingers 7.12502
rthumb 6.7763 -18.5554
lclavicle 3.67752e-015 -5.1684e-015
lhumerus -25.459 3.41864 81.2227
lradius 32.7762
lwrist 5.29958
lhand -8.55007 31.2151
lfingers 7.12502
lthumb 17.3795 60.4581
rfemur -40.7896 -2.22435 21.5357
rtibia 39.0376
rfoot -9.12303 -6.81646
rtoes 1.63136
lfemur -17.6474 0.315977 -17.376
ltibia 31.5826
lfoot -22.2533 -2.60024
ltoes -1.16527
199
root 1.52163 17.8056 -8.80517 12.6021 4.29336 -4.35791
lowerback 2.91995 1.56137 -3.69121
upperback 4.29119 1.98944 3.15694
thorax 2.5566 0.840206 5.32883
lowerneck -15.5281 -1.05631 -0.0190168
upperneck 39.9478 1.3868 -6.79456
head 17.327 -0.33485 -2.82238
rclavicle 1.43125e-014 2.78299e-015
rhumerus -22.1419 6.47208 -82.0923
rradius 32.9092
rwrist -11.5977
rhand -19.5122 11.5789
rfingers 7.12502
rthumb 6.81076 -18.2916
lclavicle 1.43125e-014 2.78299e-015
lhumerus -26.1168 2.70654 80.8371
lradius 32.8797
lwrist 5.38389
lhand -8.48481 31.2473
lfingers 7.12502
lthumb 17.4423 60.4847
rfemur -41.089 -2.14822 21.6065
rtibia 37.9974
rfoot -8.76868 -6.63383
rtoes 1.68138
lfemur -17.6247 0.219858 -17.3289
ltibia 31.3322
lfoot -22.2416 -2.64059
ltoes -2.33357
